# xmcd CD database file
#
# Track frame offsets:
#	150
#	18576
#	36777
#	55128
#	72791
#	85155
#	97706
#	110232
#	139570
#	149909
#	167472
#	185098
#	197337
#
# Disc length: 2785 seconds
#
# Revision: 0
# Processed by: cddbd v1.5.2PL0 Copyright (c) Steve Scherf et al.
# Submitted via: CDex 1.51
#
DISCID=b10adf0d
DTITLE=Various Artist - CitySky08
DYEAR=1995
DGENRE=Country
TTITLE0=FEELINGS 情感
TTITLE1=SAD MOVIE 傷心電影
TTITLE2=DON'T CRY FOR ME ARGENTINA 阿根廷別為我哭泣
TTITLE3=THE OTHER SIDE OF THE SUN 太陽的另一面
TTITLE4=TO SIR WITH LOVE 吾愛吾師
TTITLE5=SEVEN DAFFODILAS 七朵水仙
TTITLE6=INTERLUDE 序曲
TTITLE7=HEY JUDE 嘿!茱蒂
TTITLE8=CAN'T BUY MY LOVE 真愛無價
TTITLE9=MY SWEET LORD 親愛的上帝
TTITLE10=PRETENDER 冒牌者
TTITLE11=CANDY GIRL 糖果女郎
TTITLE12=DIANNA 戴安娜
EXTD=YEAR: 1995
EXTT0=
EXTT1=
EXTT2=
EXTT3=
EXTT4=
EXTT5=
EXTT6=
EXTT7=
EXTT8=
EXTT9=
EXTT10=
EXTT11=
EXTT12=
PLAYORDER=
